<?xml version="1.0" encoding="UTF-8"?>
<svg id="Layer_1" data-name="Layer 1" xmlns="http://www.w3.org/2000/svg" viewBox="0 0 32 32">
  <defs>
    <style>
      .cls-1 {
        fill: #fff;
      }

      .cls-2 {
        fill: #fb4620;
      }
    </style>
  </defs>
  <circle class="cls-2" cx="16" cy="16" r="15.52"/>
  <g>
    <path class="cls-1" d="M16.45,25.78l7.8-4.5c.28-.16,.45-.46,.45-.78V11.5c0-.32-.17-.62-.45-.78l-7.8-4.5c-.28-.16-.62-.16-.9,0l-7.8,4.5c-.28,.16-.45,.46-.45,.78v9c0,.32,.17,.62,.45,.78l7.8,4.5c.28,.16,.62,.16,.9,0Zm-.9-2.98l-5.22-3.01c-.28-.16-.45-.46-.45-.78v-6.02c0-.32,.17-.62,.45-.78l5.22-3.01c.28-.16,.62-.16,.9,0l5.22,3.01c.28,.16,.45,.46,.45,.78v6.02c0,.32-.17,.62-.45,.78l-5.22,3.01c-.28,.16-.62,.16-.9,0Z"/>
    <circle class="cls-1" cx="16" cy="16" r="2.27"/>
  </g>
</svg>