<?xml version="1.0" encoding="UTF-8"?>
<svg id="Layer_1" data-name="Layer 1" xmlns="http://www.w3.org/2000/svg" viewBox="0 0 250 150">
  <defs>
    <style>
      .cls-1 {
        fill: #fff;
      }

      .cls-2 {
        fill: #fb4620;
      }
    </style>
  </defs>
  <g>
    <circle class="cls-2" cx="48.52" cy="75" r="39.14"/>
    <g>
      <path class="cls-1" d="M49.66,99.68l19.67-11.35c.7-.4,1.14-1.16,1.14-1.97v-22.71c0-.81-.43-1.56-1.14-1.97l-19.67-11.35c-.7-.4-1.57-.4-2.27,0l-19.67,11.35c-.7,.4-1.14,1.16-1.14,1.97v22.71c0,.81,.43,1.56,1.14,1.97l19.67,11.35c.7,.4,1.57,.4,2.27,0Zm-2.27-7.52l-13.16-7.6c-.7-.4-1.14-1.16-1.14-1.97v-15.19c0-.81,.43-1.56,1.14-1.97l13.16-7.6c.7-.4,1.57-.4,2.27,0l13.16,7.6c.7,.4,1.14,1.16,1.14,1.97v15.19c0,.81-.43,1.56-1.14,1.97l-13.16,7.6c-.7,.4-1.57,.4-2.27,0Z"/>
      <circle class="cls-1" cx="48.52" cy="75" r="5.73"/>
    </g>
  </g>
  <circle class="cls-2" cx="98.42" cy="62.17" r="2.88"/>
  <g>
    <path class="cls-1" d="M100.88,66.87v24.61h-4.94v-24.61h4.94Z"/>
    <path class="cls-1" d="M104.58,76.4c.82-1.52,1.96-2.69,3.42-3.53,1.46-.83,3.13-1.25,5.01-1.25,2.42,0,4.42,.61,6.01,1.82,1.59,1.21,2.65,2.91,3.19,5.1h-5.32c-.28-.85-.76-1.51-1.43-1.99s-1.5-.72-2.49-.72c-1.41,0-2.53,.51-3.35,1.53-.82,1.02-1.23,2.47-1.23,4.35s.41,3.3,1.23,4.32c.82,1.02,1.94,1.53,3.35,1.53,2,0,3.3-.89,3.91-2.68h5.32c-.54,2.12-1.61,3.8-3.21,5.04-1.6,1.25-3.6,1.87-5.99,1.87-1.88,0-3.55-.42-5.01-1.25-1.46-.83-2.6-2.01-3.42-3.53-.82-1.52-1.23-3.28-1.23-5.31s.41-3.79,1.23-5.31Z"/>
    <path class="cls-1" d="M128.32,90.54c-1.5-.83-2.69-2.02-3.54-3.54-.86-1.53-1.29-3.29-1.29-5.29s.44-3.76,1.32-5.29c.88-1.53,2.09-2.71,3.61-3.54,1.53-.83,3.23-1.25,5.11-1.25s3.58,.42,5.11,1.25c1.53,.83,2.73,2.02,3.61,3.54,.88,1.53,1.32,3.29,1.32,5.29s-.45,3.76-1.36,5.29c-.91,1.53-2.13,2.71-3.67,3.54-1.54,.83-3.26,1.25-5.17,1.25s-3.57-.42-5.08-1.25Zm7.6-3.7c.79-.43,1.42-1.09,1.89-1.96,.47-.87,.71-1.93,.71-3.17,0-1.86-.49-3.28-1.46-4.28-.98-1-2.17-1.5-3.58-1.5s-2.59,.5-3.54,1.5c-.95,1-1.43,2.43-1.43,4.28s.46,3.29,1.39,4.28c.93,1,2.1,1.5,3.51,1.5,.89,0,1.73-.22,2.52-.65Z"/>
    <path class="cls-1" d="M162.55,73.86c1.43,1.47,2.15,3.52,2.15,6.15v11.46h-4.94v-10.79c0-1.55-.39-2.74-1.16-3.58-.78-.83-1.83-1.25-3.17-1.25s-2.44,.42-3.23,1.25c-.79,.83-1.18,2.03-1.18,3.58v10.79h-4.94v-19.53h4.94v2.43c.66-.85,1.5-1.51,2.52-1.99,1.02-.48,2.14-.72,3.37-.72,2.33,0,4.21,.74,5.64,2.2Z"/>
    <path class="cls-1" d="M171.44,90.93c-1.27-.58-2.27-1.36-3.01-2.34s-1.15-2.08-1.22-3.28h4.97c.09,.75,.46,1.38,1.11,1.87,.65,.49,1.45,.74,2.42,.74s1.67-.19,2.2-.56c.53-.38,.79-.86,.79-1.45,0-.63-.32-1.11-.97-1.43s-1.67-.66-3.08-1.04c-1.46-.35-2.65-.72-3.58-1.09-.93-.38-1.73-.95-2.4-1.73s-1-1.82-1-3.14c0-1.08,.31-2.07,.93-2.96s1.52-1.6,2.68-2.12c1.16-.52,2.53-.78,4.11-.78,2.33,0,4.18,.58,5.57,1.75,1.39,1.16,2.15,2.73,2.29,4.71h-4.73c-.07-.78-.39-1.39-.97-1.85-.58-.46-1.35-.69-2.31-.69-.89,0-1.58,.16-2.06,.49-.48,.33-.72,.79-.72,1.38,0,.66,.33,1.16,.99,1.5s1.68,.69,3.07,1.04c1.41,.35,2.57,.72,3.49,1.09,.92,.38,1.71,.96,2.38,1.75,.67,.79,1.02,1.83,1.04,3.12,0,1.13-.31,2.14-.93,3.03-.62,.89-1.52,1.59-2.68,2.1-1.16,.5-2.52,.76-4.07,.76s-3.03-.29-4.3-.86Z"/>
    <path class="cls-1" d="M186.26,76.38c.79-1.53,1.86-2.7,3.23-3.53s2.88-1.23,4.55-1.23c1.27,0,2.48,.28,3.63,.83,1.15,.55,2.07,1.29,2.75,2.2v-9.27h5.01v26.09h-5.01v-2.89c-.61,.96-1.47,1.74-2.57,2.33-1.11,.59-2.39,.88-3.84,.88-1.65,0-3.15-.42-4.51-1.27-1.36-.85-2.44-2.04-3.23-3.58-.79-1.54-1.18-3.31-1.18-5.31s.39-3.73,1.18-5.25Zm13.49,2.24c-.47-.86-1.11-1.52-1.9-1.97-.8-.46-1.66-.69-2.57-.69s-1.76,.22-2.54,.67c-.78,.45-1.41,1.1-1.89,1.96-.48,.86-.72,1.88-.72,3.05s.24,2.2,.72,3.09c.48,.88,1.12,1.56,1.9,2.03,.79,.47,1.63,.71,2.52,.71s1.78-.23,2.57-.69c.8-.46,1.43-1.12,1.9-1.97,.47-.86,.71-1.89,.71-3.09s-.24-2.23-.71-3.08Z"/>
    <path class="cls-1" d="M212.73,90.54c-1.5-.83-2.69-2.02-3.54-3.54-.86-1.53-1.29-3.29-1.29-5.29s.44-3.76,1.32-5.29c.88-1.53,2.09-2.71,3.61-3.54,1.53-.83,3.23-1.25,5.11-1.25s3.58,.42,5.11,1.25c1.53,.83,2.73,2.02,3.61,3.54,.88,1.53,1.32,3.29,1.32,5.29s-.45,3.76-1.36,5.29c-.91,1.53-2.13,2.71-3.67,3.54-1.54,.83-3.26,1.25-5.17,1.25s-3.57-.42-5.08-1.25Zm7.6-3.7c.79-.43,1.42-1.09,1.89-1.96,.47-.87,.71-1.93,.71-3.17,0-1.86-.49-3.28-1.46-4.28-.98-1-2.17-1.5-3.58-1.5s-2.59,.5-3.54,1.5c-.95,1-1.43,2.43-1.43,4.28s.46,3.29,1.39,4.28c.93,1,2.1,1.5,3.51,1.5,.89,0,1.73-.22,2.52-.65Z"/>
    <path class="cls-1" d="M236.25,76v9.45c0,.66,.16,1.13,.48,1.43s.85,.44,1.6,.44h2.29v4.16h-3.1c-4.16,0-6.24-2.02-6.24-6.06v-9.42h-2.33v-4.05h2.33v-4.83h4.97v4.83h4.37v4.05h-4.37Z"/>
  </g>
</svg>